<svg width="717" height="388" viewBox="0 0 717 388" fill="none" xmlns="http://www.w3.org/2000/svg">
<rect width="715.748" height="387.807" transform="translate(0.80835)" fill="#E1E1E1"/>
<rect width="715.748" height="387.807" transform="translate(0.80835)" fill="#E1E1E1"/>
<rect x="0.80835" width="715.748" height="387.807" fill="white"/>
<rect x="0.80835" width="715.748" height="44.8048" fill="#D9D9D9"/>
<rect x="0.80835" y="44.8047" width="159.641" height="343.002" fill="#F0F0F0"/>
<rect x="0.80835" y="44.8047" width="159.641" height="343.002" fill="#F0F0F0"/>
<rect x="151.036" y="44.8047" width="9.41278" height="343.002" fill="#F0F0F0"/>
<rect x="151.036" y="44.8047" width="9.41278" height="343.002" fill="#E1E1E1"/>
<rect x="151.036" y="44.8047" width="9.41278" height="343.002" fill="#E1E1E1"/>
<rect x="151.036" y="44.8047" width="9.41278" height="343.002" fill="#E1E1E1"/>
<rect x="151.036" y="44.8047" width="9.41278" height="112.577" fill="#F0F0F0"/>
<rect x="151.036" y="44.8047" width="9.41278" height="112.577" fill="#E1E1E1"/>
<rect x="151.036" y="44.8047" width="9.41278" height="112.577" fill="#E1E1E1"/>
<rect x="151.036" y="44.8047" width="9.41278" height="112.577" fill="#CDCDCD"/>
<rect x="545.997" y="8.1709" width="150.981" height="28.4636" fill="#F0F0F0"/>
<rect x="545.997" y="8.1709" width="150.981" height="28.4636" fill="#E1E1E1"/>
<rect x="545.997" y="8.1709" width="150.981" height="28.4636" fill="#E1E1E1"/>
<rect x="545.997" y="8.1709" width="150.981" height="28.4636" fill="#CDCDCD"/>
<rect x="672.504" y="8.2832" width="24.4732" height="28.2383" fill="#F0F0F0"/>
<rect x="672.504" y="8.2832" width="24.4732" height="28.2383" fill="#E1E1E1"/>
<rect x="672.504" y="8.2832" width="24.4732" height="28.2383" fill="#E1E1E1"/>
<rect x="672.504" y="8.2832" width="24.4732" height="28.2383" fill="#B7B7B7"/>
<rect x="648.031" y="8.2832" width="24.4732" height="28.2383" fill="#F0F0F0"/>
<rect x="648.031" y="8.2832" width="24.4732" height="28.2383" fill="#E1E1E1"/>
<rect x="648.031" y="8.2832" width="24.4732" height="28.2383" fill="#E1E1E1"/>
<rect x="648.031" y="8.2832" width="24.4732" height="28.2383" fill="#C0C0C0"/>
<rect x="471.071" y="9.41309" width="65.1364" height="25.9793" fill="#F0F0F0"/>
<rect x="471.071" y="9.41309" width="65.1364" height="25.9793" fill="#E1E1E1"/>
<rect x="471.071" y="9.41309" width="65.1364" height="25.9793" fill="#E1E1E1"/>
<rect x="471.071" y="9.41309" width="65.1364" height="25.9793" fill="#CDCDCD"/>
<rect x="393.51" y="9.41309" width="65.1364" height="25.9793" fill="#F0F0F0"/>
<rect x="393.51" y="9.41309" width="65.1364" height="25.9793" fill="#E1E1E1"/>
<rect x="393.51" y="9.41309" width="65.1364" height="25.9793" fill="#E1E1E1"/>
<rect x="393.51" y="9.41309" width="65.1364" height="25.9793" fill="#CDCDCD"/>
<rect x="184.922" y="180.349" width="195.409" height="124.625" fill="#F0F0F0"/>
<rect x="184.922" y="180.349" width="195.409" height="124.625" fill="#E1E1E1"/>
<rect x="184.922" y="180.349" width="195.409" height="124.625" fill="#E1E1E1"/>
<rect x="184.922" y="180.349" width="195.409" height="124.625" fill="#CDCDCD"/>
<rect x="184.922" y="135.544" width="312.128" height="31.6269" fill="#F0F0F0"/>
<rect x="184.922" y="135.544" width="312.128" height="31.6269" fill="#E1E1E1"/>
<rect x="184.922" y="135.544" width="312.128" height="31.6269" fill="#E1E1E1"/>
<rect x="184.922" y="135.544" width="312.128" height="31.6269" fill="#CDCDCD"/>
<rect x="184.922" y="57.6064" width="181.478" height="11.6718" fill="#F0F0F0"/>
<rect x="184.922" y="57.6064" width="181.478" height="11.6718" fill="#E1E1E1"/>
<rect x="184.922" y="57.6064" width="181.478" height="11.6718" fill="#E1E1E1"/>
<rect x="184.922" y="57.6064" width="181.478" height="11.6718" fill="#CDCDCD"/>
<rect x="184.922" y="82.4561" width="236.073" height="41.7927" fill="#F0F0F0"/>
<rect x="184.922" y="82.4561" width="236.073" height="41.7927" fill="#E1E1E1"/>
<rect x="184.922" y="82.4561" width="236.073" height="41.7927" fill="#E1E1E1"/>
<rect x="184.922" y="82.4561" width="236.073" height="41.7927" fill="#CDCDCD"/>
<rect x="184.922" y="361.074" width="236.073" height="26.7323" fill="#F0F0F0"/>
<rect x="184.922" y="361.074" width="236.073" height="26.7323" fill="#E1E1E1"/>
<rect x="184.922" y="361.074" width="236.073" height="26.7323" fill="#E1E1E1"/>
<rect x="184.922" y="361.074" width="236.073" height="26.7323" fill="#CDCDCD"/>
<circle cx="595.696" cy="57.6067" r="9.78929" fill="#D9D9D9"/>
<circle cx="621.299" cy="57.6067" r="9.78929" fill="#D9D9D9"/>
<circle cx="705.261" cy="22.5909" r="4.89465" fill="#C6C6C6"/>
<circle cx="526.418" cy="57.6067" r="9.78929" fill="#D9D9D9"/>
<ellipse cx="660.011" cy="338.672" rx="35.3232" ry="35.9568" fill="#C3C3C3"/>
<rect x="520.77" y="128.391" width="129.896" height="176.584" rx="12.4249" fill="#EEEEEE"/>
<path d="M648.408 326.436L660.362 339.237M672.316 352.038L660.362 339.237M660.362 339.237L672.316 326.436M660.362 339.237L648.408 352.038" stroke="#ABABAB" stroke-width="2.25907"/>
</svg>
