<svg width="100" height="100" viewBox="0 0 100 100" fill="none" xmlns="http://www.w3.org/2000/svg">
<circle cx="50" cy="50" r="50" fill="#EA6C3A"/>
<path d="M26.0247 61.7541C26 61.7047 26 61.5071 26.0247 61.2847C26.1235 60.1235 27.1612 59.3824 28.2482 59.1847C28.52 59.1353 28.8412 59.0859 28.9647 59.0612L29.2365 59.0118L29.3106 58.4682C29.4341 57.5541 29.5082 57.06 29.6812 56.6153C29.78 56.3682 29.9282 55.9235 30.0024 55.6518C30.3976 54.1941 30.9659 52.8353 31.5835 51.4518C31.7812 51.0071 32.0035 50.5376 32.0776 50.3647C32.5471 49.2529 33.0412 48.1165 33.6094 47.0294C36.0306 42.3353 36.08 42.0882 36.4012 40.9765C36.5 40.6306 36.5247 40.4824 36.4259 40.4824C36.3271 40.4824 36.1541 40.6059 35.8329 40.8282C34.9682 41.4706 34.0541 42.36 33.3376 43.4224C33.0906 43.7929 32.8435 44.0647 32.8188 44.0647C32.7694 44.0647 32.72 44.1141 32.6706 44.1635C32.6212 44.2376 32.6706 44.2624 32.72 44.2376C32.7694 44.2129 32.6953 44.4106 32.5471 44.6824C32.3988 44.9788 32.2506 45.1765 32.2259 45.1518C32.2259 45.1271 32.1765 45.1765 32.1024 45.2506C32.0529 45.3 32.0282 45.3247 32.0282 45.3247C32.0035 45.3247 32.0035 45.2506 32.0529 45.1271C32.1024 45.0035 32.1024 44.9541 32.1024 44.9541C32.0776 44.9541 32.0529 45.0035 32.0035 45.0776C31.9294 45.1765 31.8306 45.2259 31.7565 45.2259C31.6824 45.2259 31.6576 45.2012 31.6576 45.1271C31.6576 45.0776 31.6329 45.0529 31.6082 45.0529C31.5835 45.0529 31.5094 45.1024 31.4847 45.2012C31.46 45.3 31.4353 45.3247 31.4106 45.3247C31.3859 45.3247 31.3612 45.3 31.3365 45.2753C31.2624 45.2012 31.2376 45.0776 31.2624 44.9788C31.2871 44.8553 31.2624 44.8553 31.2129 44.9294C31.1882 44.9788 31.1388 45.0035 31.1141 45.0035C31.04 45.0035 30.9906 44.8306 31.0153 44.6082C31.0647 44.2624 31.4847 43.1259 31.9294 42.2612C32.3741 41.3965 33.3129 40.0871 33.9059 39.5435C34.4494 39.0247 36.2776 37.74 37.0682 37.74C38.3776 37.7647 39.4894 38.3329 40.28 39.3953C40.6506 39.8894 40.7741 40.3835 40.7 41.0259C40.5518 42.6565 39.6871 44.3859 38.9706 45.8188C38.7235 46.3129 38.4765 46.8318 38.4024 46.9306C38.1059 47.3506 37.6612 48.3388 37.6612 48.4129C37.6612 48.4376 37.6365 48.5118 37.5624 48.5859C37.5129 48.6353 37.2659 49.0306 37.0435 49.5C36.8212 49.9447 36.5988 50.34 36.5494 50.4141C36.4259 50.5624 36.3024 50.9082 36.2529 51.0318C36.2282 51.0812 36.1047 51.3282 35.9812 51.5753C35.8576 51.8224 35.7588 52.0447 35.7588 52.0694C35.7835 52.1682 34.9682 53.6259 34.8694 53.7C34.8447 53.7247 34.82 53.7741 34.8447 53.8235C34.8694 53.8729 34.7953 53.9965 34.7212 54.12C34.6471 54.2435 34.5482 54.4659 34.4988 54.6141C34.4494 54.7376 34.4 54.8612 34.3753 54.8612C34.3259 54.8612 34.2518 54.96 34.2271 55.1082C34.2271 55.1576 34.0541 55.5282 33.98 55.5282C33.9553 55.5282 33.9553 55.4541 34.0047 55.3059C34.0541 55.1576 34.1282 55.0094 34.1529 54.96C34.1776 54.9106 34.2271 54.7871 34.2271 54.6635C34.2271 54.5153 34.2271 54.4659 34.1529 54.4906C34.1035 54.4906 34.0541 54.5894 34.0541 54.6882C34.0541 54.7871 34.0294 54.8612 33.98 54.8365C33.9306 54.8365 33.9059 54.96 33.9059 55.1576C33.9059 55.4047 33.8318 55.5035 33.7576 55.5776C33.7082 55.6271 33.6588 55.7012 33.6835 55.7506C33.7082 55.8 33.6588 55.8494 33.6094 55.8741C33.5353 55.8988 33.5106 55.8741 33.5353 55.8247C33.56 55.8 33.5847 55.7259 33.5106 55.7012C33.4612 55.6765 33.4612 55.6271 33.4859 55.5776C33.56 55.5035 33.4365 55.4541 33.2882 55.4541C33.2141 55.4541 33.1153 55.4541 33.0412 55.5035C32.9176 55.5776 32.8188 55.6518 32.8682 55.6765C32.9176 55.6765 32.9918 55.6765 33.0412 55.6518C33.0906 55.6271 33.1153 55.6024 33.1647 55.6024C33.1894 55.6271 33.2388 55.6271 33.2635 55.6518C33.3624 55.7259 33.3624 55.7259 33.3129 55.7259C33.2388 55.7259 33.2882 55.8 33.4118 55.8741C33.5353 55.9482 33.6341 56.0471 33.6094 56.0965C33.6094 56.1459 33.6588 56.1706 33.7082 56.1706C33.7576 56.1706 33.8071 56.2447 33.7824 56.3188C33.7824 56.3682 33.7329 56.4176 33.7082 56.3929C33.6835 56.3682 33.6835 56.3682 33.6588 56.3682C33.6341 56.3682 33.6094 56.4176 33.6341 56.4918C33.6588 56.6153 33.6094 56.6647 33.5353 56.64C33.4365 56.6153 33.4365 56.6647 33.4612 56.7882C33.5353 57.0353 33.5353 57.1094 33.3624 57.1094C33.2635 57.1094 33.2388 57.1341 33.2388 57.2824C33.2388 57.3812 33.2388 57.4306 33.14 57.4306C33.0412 57.4306 33.0412 57.4306 33.14 57.5294C33.2635 57.6529 33.2388 57.9 33.0906 58.0482C32.9671 58.1718 32.9424 58.2953 33.0412 58.32C33.0659 58.32 33.0906 58.4188 33.0412 58.5424L32.9424 58.74L37.6612 59.1847C40.2553 59.4318 42.6518 59.6047 42.9729 59.6047C45.7894 59.6047 46.1353 59.4565 46.5306 59.16C46.7035 59.0365 46.7776 58.9624 46.8518 58.9624C47.0247 58.9871 47.1976 59.1353 47.2471 59.3082C47.2471 59.4071 47.2965 59.6294 47.3212 59.8271C47.3953 60.2224 47.3706 60.8647 47.2224 61.5318C47.0494 62.2482 46.9506 62.3965 46.4318 62.7671C46.0612 63.0388 45.8388 63.2118 45.8882 63.2118C45.8882 63.2118 45.9376 63.1871 46.0118 63.1376C46.3329 62.94 46.5059 62.8659 46.58 62.8659C46.6294 62.8412 46.4812 63.0141 46.0859 63.3106C45.0729 64.0765 44.2824 64.3482 42.9976 64.3482C42.1576 64.3482 38.4271 63.9282 36.4012 63.6565C36.0306 63.6071 35.0424 63.4588 34.2024 63.36C33.3624 63.2612 32.3 63.0882 31.8553 63.0141C31.4106 62.94 30.3976 62.8165 29.6565 62.7424C29.0635 62.6929 28.7176 62.6435 28.4706 62.6435C28.2235 62.6682 27.2847 62.8165 27.2353 63.0388C27.2106 63.1376 27.1859 63.1624 27.1365 63.1624C27.0871 63.1871 26.9882 63.1376 26.8647 63.0635C26.5188 62.8659 26.1729 62.2976 26.1235 62.0506C26.0988 61.9024 26.0741 61.7788 26.0247 61.7541ZM31.9788 52.8353C31.9047 52.9341 31.9047 52.9835 31.9541 52.9835C31.9788 52.9835 32.0282 52.9835 32.1024 52.9341C32.1518 52.8847 32.1765 52.86 32.1518 52.8353C32.1271 52.8353 32.1271 52.7859 32.1765 52.7365C32.2259 52.6871 32.2506 52.6129 32.2259 52.5882C32.2259 52.5635 32.2012 52.4647 32.2506 52.3659C32.3 52.2671 32.3494 52.2176 32.3741 52.2918C32.3988 52.3412 32.4235 52.2424 32.4235 52.0941C32.4235 51.9212 32.4976 51.7729 32.5471 51.7729C32.5965 51.7482 32.6212 51.6988 32.6212 51.6741C32.5965 51.6247 32.6459 51.5012 32.7694 51.3776C32.8682 51.2788 32.9918 51.0812 33.0412 50.9329C33.0906 50.7847 33.14 50.6612 33.1647 50.6612C33.2141 50.6612 33.2388 50.6365 33.2388 50.6118C33.2141 50.5624 33.2635 50.4882 33.2882 50.3894C33.7576 48.5118 34.4247 47.9682 35.0424 46.7576C36.2776 44.3612 36.5988 43.7188 36.92 42.7553C37.0929 42.2118 37.2165 41.7918 37.1671 41.7918C37.1671 41.7918 37.1424 41.8412 37.0929 41.9647C36.7471 42.8294 34.1529 48.2153 33.9553 48.2894C33.9306 48.2894 33.9306 48.3635 33.9306 48.4129C33.9306 48.4624 33.9059 48.5612 33.8565 48.5612C33.8318 48.5859 33.7824 48.66 33.7576 48.7341C33.7576 48.8082 33.7082 48.9812 33.6341 49.1047C33.14 49.9447 33.0659 50.2412 33.0165 50.4882C32.9424 50.7847 32.6953 51.18 32.6212 51.18C32.5718 51.18 32.5718 51.2541 32.5718 51.3529C32.5718 51.4518 32.5718 51.5012 32.5471 51.5012C32.5471 51.5012 32.5224 51.5012 32.4976 51.4765C32.4482 51.4271 32.3741 51.4518 32.3494 51.4765C32.3247 51.5259 32.3247 51.5506 32.3741 51.5753C32.4729 51.5753 32.4482 51.7976 32.2506 52.1682C32.1271 52.3906 32.0529 52.4894 31.9788 52.44C31.9294 52.4153 31.9294 52.44 32.0035 52.5141C32.0776 52.6129 32.0529 52.7118 31.9788 52.8353ZM35.8576 51.0565C35.5859 51.6 35.5365 51.7976 35.66 51.7976C35.6847 51.7976 35.7341 51.7482 35.7341 51.6741C35.7341 51.5753 35.8329 51.3529 35.9565 51.1306C36.0553 50.9329 36.2282 50.6118 36.3024 50.4388C36.6482 49.6482 36.9447 49.0553 37.3153 48.4129C37.7847 47.6224 39.2918 44.5835 39.5141 43.9906C39.7365 43.3976 40.0576 42.36 40.0082 42.2612C39.9835 42.2118 39.9835 42.2118 39.9588 42.3106C39.9094 42.5576 39.1929 44.4106 38.7976 45.2259C38.2788 46.3129 37.1176 48.4376 36.5988 49.5C36.3518 49.9941 36.1294 50.4141 36.1294 50.4635C36.1294 50.5129 36.0059 50.7847 35.8576 51.0565ZM40.4529 60.4941C39.2176 60.3706 38.7235 60.3212 38.5753 60.3212C38.4518 60.3212 38.5012 60.3212 38.5259 60.3706C38.5506 60.42 38.9459 60.4941 39.3906 60.5435C39.8106 60.5929 40.1812 60.6424 40.1812 60.6671C40.1812 60.6918 40.7988 60.7412 41.54 60.8153C42.0835 60.8647 42.4788 60.8894 42.7753 60.8894C43.0471 60.8894 43.2447 60.8647 43.4176 60.84C43.7141 60.7906 44.3071 60.6918 44.7271 60.6176C45.3694 60.4941 45.5671 60.4447 45.3447 60.4447C45.2212 60.42 44.9988 60.4447 44.6776 60.4941C43.9612 60.5929 43.3929 60.6424 42.7506 60.6424C42.1329 60.6424 41.4165 60.5929 40.4529 60.4941ZM40.8235 63.8541C40.7247 63.9035 42.5282 64.0271 43.0718 64.0271C43.1212 64.0271 43.1706 64.0271 43.1953 64.0271C43.3435 64.0024 43.4918 63.9776 43.64 63.9776C43.6894 63.9776 43.7388 64.0024 43.7882 64.0024C43.8129 64.0024 43.8376 64.0024 43.8624 64.0024C43.9365 64.0024 44.0106 63.9776 44.0353 63.9529C44.0353 63.9035 44.1094 63.8788 44.2082 63.8788C44.3071 63.8788 44.48 63.8788 44.5541 63.8294C44.6282 63.78 44.7765 63.7306 44.8259 63.7306C44.8753 63.7553 44.9247 63.7059 44.9494 63.6565C44.9741 63.6318 44.9247 63.6318 44.8259 63.6318C44.7271 63.6071 44.5788 63.6318 44.3812 63.6565C43.4424 63.78 42.7753 63.8541 42.0341 63.8541C41.9353 63.8541 41.8365 63.8541 41.7129 63.8541C41.4659 63.8541 41.2682 63.8294 41.0953 63.8294C40.9224 63.8294 40.8235 63.8541 40.8235 63.8541ZM31.3118 44.5835C31.3118 44.6576 31.3118 44.6824 31.3118 44.6824C31.3365 44.6824 31.46 44.4353 31.7565 43.7929C31.9788 43.3235 32.3494 42.6318 32.5718 42.2365C32.7941 41.8412 32.9918 41.52 32.9671 41.52C32.7694 41.4953 31.3365 44.1388 31.3118 44.5835ZM30.0271 58.4188C29.9776 58.4188 29.9529 58.6659 29.9776 58.8141C29.9776 58.8141 30.0518 58.8388 30.1506 58.8388C30.2741 58.8388 30.3235 58.8141 30.3729 58.5424C30.4471 58.1224 30.4224 57.8259 30.3482 57.8259C30.2988 57.8506 30.2247 57.9247 30.1506 58.1471C30.1012 58.2953 30.0518 58.4188 30.0271 58.4188ZM31.0894 55.0094C31.0153 55.0588 30.9165 55.4047 30.9906 55.4294C31.0647 55.4294 31.4106 55.0094 31.4106 54.9353C31.4353 54.8859 31.46 54.6635 31.5094 54.4165C31.5588 54.1447 31.5835 54.0212 31.5341 54.0212C31.46 54.0212 31.3118 54.2929 31.3118 54.3671C31.3118 54.4165 31.2624 54.5153 31.1635 54.6141C31.0647 54.7129 31.0153 54.7871 31.0894 54.8612C31.1388 54.9106 31.1388 54.9847 31.0894 55.0094ZM38.5012 44.6329C38.3529 44.9541 38.2788 45.1024 38.2788 45.1024C38.3035 45.1024 38.4024 44.9047 38.6247 44.5094C38.8224 44.1635 39.5141 42.6812 39.5141 42.3106C39.5388 42.2118 39.3412 42.5824 39.1188 43.1506C38.8965 43.7435 38.6 44.3859 38.5012 44.6329ZM37.0929 47.4C37.0188 47.5482 36.9694 47.6471 36.9694 47.6965C36.9694 47.7953 37.1918 47.4 37.34 47.1282C37.4141 46.98 37.5129 46.8565 37.5376 46.8565C37.5871 46.8565 37.6118 46.8318 37.5871 46.7824C37.5624 46.7329 37.7106 46.3624 37.9082 45.9671C38.1059 45.5965 38.2541 45.2506 38.2294 45.2259C38.2294 45.2259 37.9824 45.6459 37.7106 46.1894C37.4388 46.7329 37.1671 47.3012 37.0929 47.4ZM26.8894 60.7165L27.2847 60.5929C27.4824 60.5188 27.7541 60.3953 27.8282 60.3212C27.9518 60.2224 27.9518 60.1729 27.8776 60.1729C27.7047 60.1729 27.2106 60.3953 27.0376 60.5682L26.8894 60.7165ZM43.1953 63.2612L42.6518 63.3106L43.0224 63.36C43.0718 63.36 43.1212 63.36 43.1706 63.36C43.3929 63.3847 43.6647 63.3353 43.8624 63.3353C44.1094 63.2859 44.3318 63.2365 44.3812 63.2118C44.4059 63.1871 44.3812 63.1624 44.3071 63.1624C44.1835 63.1624 43.8624 63.2118 43.1953 63.2612ZM43.1706 62.0753C43.1706 62.1 43.2447 62.1 43.3435 62.1C43.5659 62.1247 43.9365 62.0753 44.0847 62.0012L44.2576 61.9271L44.0847 61.9518C43.9859 61.9765 43.7388 61.9765 43.5412 61.9765C43.3188 61.9765 43.1706 62.0259 43.1706 62.0753ZM30.8918 55.6765C30.8176 55.9235 30.8176 55.9976 30.8918 55.9482C30.9412 55.9235 30.9659 55.9482 30.9659 55.9976C30.9412 56.0471 30.9906 56.0471 31.04 55.9729C31.1141 55.8741 31.1388 55.8741 31.0647 55.8C31.0153 55.7259 30.9659 55.6518 31.0153 55.6024C31.0647 55.5529 31.04 55.5035 31.0153 55.5035C30.9659 55.5035 30.9165 55.5776 30.8918 55.6765ZM31.6329 53.6012C31.5835 53.6753 31.5341 53.7988 31.5588 53.8482C31.5835 53.8976 31.6082 53.9224 31.6329 53.9224C31.7071 53.8976 31.7565 53.7988 31.7565 53.6506V53.4282L31.6329 53.6012ZM38.1553 42.6318C37.9824 43.0271 37.9082 43.2741 37.9329 43.2741C37.9329 43.2741 37.9576 43.2 38.0318 43.1012C38.1306 42.9529 38.2294 42.6812 38.2541 42.5329C38.2788 42.4341 38.2788 42.36 38.2788 42.36C38.2788 42.36 38.2294 42.4588 38.1553 42.6318ZM30.6447 56.3682C30.62 56.4671 30.62 56.5165 30.6447 56.5165C30.7188 56.5165 30.8671 56.3188 30.8671 56.2447C30.8671 56.1706 30.8424 56.1459 30.8176 56.1459C30.7682 56.1459 30.6694 56.2447 30.6447 56.3682ZM30.5459 56.9612C30.4718 56.9859 30.3729 57.1094 30.3729 57.1835H30.7682L30.6447 57.0353C30.62 56.9859 30.5706 56.9612 30.5459 56.9612ZM38.2047 60.3212C38.1306 60.2471 38.0812 60.3706 38.1553 60.4694C38.2047 60.5435 38.4024 60.3953 38.4024 60.2718C38.4271 60.2224 38.4024 60.2471 38.3529 60.2965C38.3035 60.3459 38.2541 60.3706 38.2047 60.3212ZM34.6471 53.5518C34.6224 53.5024 34.5729 53.5024 34.5482 53.5024C34.5235 53.4776 34.4988 53.5518 34.5235 53.6753C34.5482 53.7494 34.5482 53.7741 34.5976 53.7741C34.5976 53.7741 34.6224 53.7741 34.6471 53.7494C34.6965 53.7 34.6965 53.6259 34.6471 53.5518ZM32.4235 44.6329C32.3247 44.7812 32.2506 44.9541 32.2506 45.0035C32.2506 45.0282 32.3247 44.9541 32.3988 44.8059C32.4729 44.6576 32.5471 44.5094 32.5718 44.46C32.5718 44.4106 32.4976 44.4847 32.4235 44.6329ZM40.4282 40.3341C40.4035 40.5071 40.4529 40.8035 40.5024 40.7541C40.5024 40.7541 40.5024 40.6059 40.4776 40.4576C40.4529 40.3341 40.4529 40.2847 40.4282 40.2847C40.4282 40.2847 40.4282 40.3094 40.4282 40.3341ZM33.4118 55.0341C33.2882 55.0094 33.2635 55.1082 33.3376 55.1824C33.3624 55.2071 33.3871 55.2318 33.3871 55.2318C33.4118 55.2318 33.4118 55.2071 33.4365 55.1329C33.4612 55.0835 33.4612 55.0341 33.4118 55.0341ZM37.7353 60.1976C37.6118 60.2224 37.6118 60.3212 37.76 60.3212C37.8588 60.3212 37.9082 60.2965 37.8835 60.2471C37.8588 60.2224 37.8094 60.1729 37.7353 60.1976ZM45.4682 63.4094C45.3941 63.4341 45.3447 63.4588 45.32 63.5082C45.32 63.5576 45.3694 63.5329 45.4435 63.5329C45.4929 63.5329 45.5671 63.4835 45.5671 63.4341C45.5671 63.4094 45.5176 63.3847 45.4682 63.4094ZM40.1318 41.7671C40.1071 41.8412 40.1565 41.8906 40.1812 41.8906C40.1812 41.8906 40.2059 41.8659 40.2306 41.8165C40.2553 41.7918 40.2553 41.7176 40.2306 41.6929C40.1812 41.6682 40.1318 41.6929 40.1318 41.7671ZM30.4224 57.4059C30.3729 57.4059 30.3482 57.4306 30.3482 57.48C30.3729 57.5294 30.3976 57.5541 30.4224 57.5541C30.4224 57.5788 30.4718 57.5294 30.4965 57.48C30.5212 57.4553 30.4965 57.4059 30.4224 57.4059ZM32.6706 58.5176C32.6706 58.5671 32.6953 58.5918 32.7447 58.6165C32.7694 58.6165 32.8188 58.5671 32.8188 58.5424C32.8188 58.4929 32.7941 58.4435 32.7447 58.4435C32.72 58.4435 32.6706 58.4682 32.6706 58.5176ZM32.6459 56.5659C32.6459 56.6153 32.6706 56.64 32.72 56.64C32.7447 56.6647 32.7941 56.6153 32.7941 56.5659C32.7941 56.5412 32.7694 56.4918 32.7447 56.4918C32.6953 56.4918 32.6706 56.5165 32.6459 56.5659ZM34.5482 52.3412C34.5482 52.3906 34.5729 52.44 34.5976 52.44C34.6471 52.44 34.6965 52.4153 34.6965 52.4153C34.6965 52.3906 34.6471 52.3412 34.6224 52.3165C34.5729 52.2918 34.5482 52.2918 34.5482 52.3412ZM32.9424 57.3318C32.8929 57.3071 32.8682 57.3565 32.8929 57.4059C32.9176 57.4553 32.9424 57.48 32.9671 57.48C32.9671 57.48 32.9918 57.4553 32.9918 57.4059C33.0165 57.3565 32.9671 57.3318 32.9424 57.3318ZM34.4247 52.7365C34.4 52.7365 34.3753 52.7859 34.4 52.8106C34.4 52.86 34.4494 52.9094 34.4494 52.9094C34.4741 52.9094 34.4988 52.8847 34.4988 52.8353C34.4988 52.7859 34.4741 52.7365 34.4247 52.7365ZM33.0412 41.3471C32.9918 41.4459 33.0165 41.4706 33.0906 41.3965C33.14 41.3471 33.1647 41.2729 33.14 41.2482C33.14 41.2235 33.0906 41.2729 33.0412 41.3471ZM31.7565 53.3047C31.7318 53.3294 31.7318 53.3788 31.7565 53.3788C31.8059 53.3788 31.8553 53.3541 31.8553 53.3047C31.8553 53.2553 31.8553 53.2306 31.8306 53.2306C31.8059 53.2306 31.7812 53.2553 31.7565 53.3047ZM32.9176 56.3929C32.8682 56.3435 32.8188 56.3682 32.8435 56.4176L33.0165 56.4918L32.9176 56.3929ZM34.1282 53.2306C34.0541 53.2306 34.1035 53.2553 34.2024 53.28L34.3259 53.2553L34.1282 53.2306ZM45.7863 60.0988C45.564 59.4071 45.7122 57.8753 46.2063 56.8871C46.3299 56.64 46.6757 55.8247 46.9969 55.0588C47.5899 53.6506 47.8369 53.1071 48.3804 52.2176C48.8499 51.4518 49.3934 50.4635 49.3934 50.3647C49.3934 50.3153 49.344 50.2906 49.2451 50.2906C48.8993 50.2906 48.0346 50.5624 47.5157 50.8588C47.244 51.0071 47.0463 51.1059 46.9969 51.0565C46.9475 51.0071 46.9228 51.0318 46.9475 51.0812C46.9969 51.1306 46.7746 51.3529 46.6757 51.3529C46.651 51.3529 46.5769 51.2294 46.5028 51.0565C46.3299 50.6365 46.404 49.5 46.6757 49.0059C46.9722 48.4624 47.8863 47.6718 48.5287 47.3753C49.1463 47.0788 50.3569 46.8565 51.0487 46.8565C51.2216 46.8565 51.271 46.7824 51.7899 45.6706C53.0993 42.9035 53.6675 41.4953 53.8404 40.5071C53.8899 40.2106 53.8899 40.1612 53.7663 40.1612C53.5193 40.1612 52.2099 40.8035 51.8887 41.1247C51.8393 41.1741 51.6416 41.3471 51.4687 41.4706C51.024 41.7918 50.4557 42.5329 49.9616 43.3235C49.5169 44.04 49.1216 44.5588 49.0722 44.5094C49.0475 44.4847 48.924 44.4847 48.7757 44.5341C48.7263 44.5588 48.6522 44.5588 48.6275 44.5588C48.5287 44.5588 48.4546 44.5094 48.3557 44.3612C48.1581 44.0894 48.1828 43.62 48.4051 42.8541C49.0969 40.4824 50.5793 38.7035 52.5557 37.9624C52.951 37.8141 53.2969 37.74 53.6428 37.74C54.8534 37.74 56.1381 38.8765 56.8051 39.7906C57.2251 40.3835 57.6699 41.3224 57.5957 41.7424C57.571 41.8906 57.5957 41.9894 57.6204 41.94C57.6451 41.9153 57.6451 41.8906 57.6451 41.8906C57.7687 41.9153 57.6946 43.1753 57.5463 43.7435C57.4722 44.04 56.2616 46.5847 56.0887 47.2765C56.064 47.3753 56.3604 47.4494 58.0651 47.7212C58.7075 47.82 59.4981 47.9188 59.8193 47.9188H60.3875L60.7334 47.3012C61.2522 46.3624 61.7216 45.5471 61.7957 45.4482C62.191 44.8553 64.3651 40.4082 64.3651 39.9141C64.3651 39.8894 64.291 39.8647 64.2416 39.84C64.044 39.7412 64.044 39.5435 64.2663 39.3706C64.4146 39.2471 64.4393 39.1976 64.3157 39.1976C64.2416 39.1976 64.1675 39.2471 64.1428 39.3212C64.1181 39.3953 64.0687 39.4447 64.0193 39.4447C63.9204 39.4447 63.8463 39.2471 63.8463 39C63.8463 38.7776 64.3157 38.3082 64.6122 38.1847C64.7357 38.1353 64.9334 38.1106 65.131 38.1106C65.3287 38.1106 65.5016 38.1353 65.551 38.2094C65.5757 38.2588 65.6993 38.3576 65.8969 38.4071C66.8357 38.6788 68.1699 40.3835 68.1204 41.1C68.1204 41.1741 68.1204 41.2235 68.1699 41.1988C68.3922 41.0753 68.244 42.1871 67.9228 43.1753C67.6263 44.0647 66.7122 46.1153 66.0699 47.2024C65.8228 47.6224 65.6499 48.0176 65.6746 48.0176C65.6993 48.0176 65.724 48.0424 65.7734 48.0424C66.4899 48.0176 68.7875 47.4247 69.3804 46.8318C69.5287 46.6835 69.6522 46.5847 69.7757 46.6094C69.9981 46.6341 70.2451 46.7824 70.2204 46.8812C70.2204 46.9306 70.3193 47.0541 70.3687 47.2024C70.4181 47.3259 70.5416 47.6965 70.591 48.0176C70.7146 48.7094 70.6899 49.6976 70.4428 50.0188C70.3687 50.1176 70.2946 50.2659 70.2946 50.34C70.2946 50.4141 70.2699 50.4388 70.2204 50.4141C70.171 50.3894 70.1463 50.3894 70.1463 50.4388C70.1463 50.4882 70.1216 50.5376 70.0722 50.5129C70.0228 50.4882 69.3804 51.0071 69.3557 51.0812C69.3557 51.1306 69.504 51.0318 69.6522 50.8835C69.8499 50.6859 69.9981 50.6118 70.0475 50.6118C70.0969 50.6118 70.0475 50.7353 69.8499 50.9329C68.7628 52.02 65.7981 52.3906 64.3404 52.3906C64.2663 52.3906 64.1922 52.3906 64.1181 52.3906C63.2781 52.3906 63.0557 52.44 62.9816 52.5388C62.9322 52.6129 62.4875 53.3541 62.0181 54.2188C60.4863 57.06 59.9428 58.4929 59.7451 59.9753C59.671 60.5435 59.671 60.5682 59.7946 60.5435C59.8934 60.5188 60.0416 60.4447 60.1404 60.4447C60.1899 60.4447 60.2146 60.42 60.2393 60.42C60.4369 60.4447 60.4863 60.6424 60.264 60.8647C60.1651 60.9635 60.0169 61.1365 59.9428 61.26C59.8687 61.3835 59.7204 61.5071 59.5969 61.5565C59.4487 61.6059 59.3251 61.7047 59.2757 61.7541C59.2263 61.8035 58.9546 61.9271 58.6828 62.0259C58.411 62.1247 58.2381 62.1741 58.0651 62.1741C56.904 62.1494 56.1134 61.5565 55.7181 60.4447C55.5204 59.9012 55.5451 58.7647 55.7675 57.8506C56.064 56.6894 56.8299 54.8365 57.6451 53.0576C57.991 52.3165 58.2875 51.6988 58.2875 51.6494C58.2875 51.6247 57.6451 51.4518 56.8793 51.2541C56.0887 51.0565 55.4216 50.8835 55.3969 50.8341C55.3722 50.76 55.3228 50.76 55.3228 50.8094C55.3228 50.8588 55.2734 50.8588 55.1993 50.8588C55.1499 50.8588 55.051 50.8588 54.9028 50.8094C54.7546 50.76 54.6557 50.76 54.6063 50.76C54.4828 50.7353 54.4334 50.8094 54.3346 50.9576C54.2604 51.0812 53.8404 51.8224 53.4204 52.5882C52.7287 53.8729 52.0122 55.1329 51.271 56.3929C51.1228 56.64 50.8757 57.0106 50.7522 57.2082C50.6287 57.3812 50.5299 57.5541 50.5299 57.5788C50.5299 57.6035 50.2334 58.0729 49.8875 58.6165C49.5416 59.16 49.1957 59.7529 49.0969 59.9012C48.9734 60.0741 48.8746 60.2471 48.8251 60.2965C48.7757 60.3459 48.7263 60.4447 48.7263 60.4941C48.7263 60.5682 48.6522 60.7412 48.5534 60.9141C48.3804 61.2106 48.3557 61.2353 48.4793 61.3588C48.6275 61.5071 48.504 61.6059 48.1828 61.8035C48.0593 61.8776 47.9851 61.9024 47.8616 61.9024C47.2687 61.8776 46.6016 61.6553 46.3299 61.1118C46.2557 60.9635 46.1322 60.7412 46.0334 60.6424C45.9593 60.5682 45.8604 60.2965 45.7863 60.0988ZM57.0522 57.0847C56.7804 57.7518 56.5581 58.9376 56.5581 59.3824C56.5581 59.6047 56.6075 59.7282 56.6322 59.7035C56.6816 59.6541 56.8051 59.1106 56.904 58.4929C57.2004 56.7882 57.6204 55.8247 58.3616 54.3424C58.584 53.8976 58.9299 53.1812 59.1522 52.7365C59.4734 52.1188 59.5475 51.9212 59.4734 51.8965C59.3993 51.8718 59.3251 51.9459 59.2757 52.02C59.0287 52.4153 57.9169 54.9353 57.5957 55.7012C57.3981 56.1953 57.151 56.8129 57.0522 57.0847ZM48.9487 59.3329C48.751 59.6047 48.5287 60.1235 48.6028 60.1482C48.6275 60.1482 48.7016 60.0494 48.7016 59.9259C48.7263 59.8271 48.8251 59.7282 48.8499 59.7282C48.8746 59.7529 48.924 59.7035 48.924 59.6541C48.924 59.6047 48.9981 59.4565 49.1216 59.3082C49.2204 59.1847 49.2946 59.0365 49.2946 59.0118C49.2946 58.9871 49.4181 58.7894 49.5663 58.5671C49.6899 58.3694 49.9369 57.9988 50.0604 57.7271C50.184 57.48 50.3816 57.1588 50.5051 57.0353C50.6287 56.8871 50.7028 56.7388 50.7028 56.7141C50.6781 56.6647 50.7028 56.64 50.7522 56.64C50.8016 56.64 50.8263 56.6153 50.8016 56.5906C50.7522 56.5165 51.0734 55.9235 51.1722 55.9235C51.2216 55.9235 51.2216 55.8988 51.2216 55.8494C51.1969 55.7753 51.8146 54.6882 51.9875 54.5153C52.0616 54.4412 52.111 54.3176 52.111 54.2435C52.111 54.1941 52.111 54.1447 52.1604 54.1941C52.2099 54.2435 52.2346 54.2188 52.2346 54.12C52.2346 54.0212 52.3581 53.7988 52.4816 53.6012C52.6299 53.3788 52.704 53.2059 52.6793 53.1812C52.6546 53.1318 51.2463 55.7259 49.4675 58.4929C49.2451 58.8388 49.0228 59.2094 48.9487 59.3329ZM63.5499 52.0694C63.4263 52.0694 63.6487 52.0941 64.0687 52.0941C64.4887 52.0941 65.1063 52.0941 65.4275 52.0941C65.7487 52.0694 66.3169 51.9706 66.7369 51.8965C67.1075 51.8224 67.4781 51.7235 67.5275 51.7235C67.5769 51.6988 67.651 51.6741 67.6757 51.6494C67.7251 51.6247 67.7993 51.6 67.8981 51.6C67.9969 51.6 68.071 51.6 68.1204 51.5753C68.1451 51.5259 68.1946 51.5012 68.244 51.5012C68.2687 51.5012 68.3181 51.5012 68.3181 51.4765C68.3181 51.4765 68.3922 51.4518 68.4663 51.4518C68.5899 51.4518 69.1828 51.1306 69.1087 51.1306C69.084 51.1306 68.6393 51.2294 68.1204 51.3776C67.0087 51.6988 65.6993 51.9459 64.6369 51.9953C64.1922 52.02 63.6981 52.0447 63.5499 52.0694ZM48.9487 58.4682C48.504 59.2341 48.3804 59.4565 48.4546 59.4565C48.5287 59.4565 48.5781 59.3576 48.5781 59.3082C48.5781 59.2588 48.7016 59.0612 48.8499 58.8141C48.9734 58.5918 49.344 57.9741 49.6404 57.4553C50.2581 56.3435 50.3569 56.2447 51.0487 55.0341C51.6169 54.0459 52.0122 53.3294 51.9628 53.3294C51.9381 53.3294 51.3699 54.3176 51.0487 54.8118C50.9251 55.0094 50.7275 55.3553 50.5793 55.6271C50.431 55.8741 50.1346 56.4176 49.8875 56.8129C49.6404 57.2329 49.2204 57.9741 48.9487 58.4682ZM48.5287 43.6941C48.5287 43.7929 48.6275 43.5706 48.751 43.1753C48.9487 42.5824 49.8381 40.8282 50.184 40.4576C50.2087 40.4329 50.2087 40.4082 50.2087 40.4082C49.8875 40.4082 48.5534 43.2 48.5287 43.6941ZM64.9087 49.2035C64.8346 49.2776 64.8346 49.3024 64.9581 49.3024C65.0075 49.3024 65.0816 49.3024 65.1804 49.3024C65.3781 49.2776 65.7734 49.2035 66.0946 49.1541C66.6628 49.0553 67.7993 48.6847 67.7499 48.66C67.7251 48.6353 67.2804 48.7094 66.7122 48.8329C66.1687 48.9565 65.551 49.0553 65.3534 49.0553C65.1804 49.0553 64.9581 49.1541 64.9087 49.2035ZM48.7757 48.0424C48.7263 48.0918 48.751 48.0918 48.8499 48.0671C49.0969 47.9929 50.4557 47.82 50.7522 47.82C50.7769 47.82 50.8263 47.7706 50.8263 47.7212C50.8263 47.6718 50.7275 47.6471 50.5793 47.6471C50.0851 47.6718 48.9734 47.8694 48.7757 48.0424ZM61.4746 48.0176C61.4746 48.0424 61.524 48.0424 61.5487 48.0671C61.6228 48.0671 61.7216 47.8941 61.8204 47.7212C61.9193 47.5482 62.2157 47.0047 62.4875 46.5353C62.7593 46.0412 62.9569 45.6459 62.9322 45.6212C62.9075 45.5718 61.4746 47.8941 61.4746 48.0176ZM61.0793 55.2318C61.0546 55.3306 61.104 55.2071 61.8946 53.8235C62.3146 53.0824 62.6604 52.44 62.6604 52.4153C62.6604 52.3906 62.611 52.3906 62.5616 52.3659C62.5122 52.3659 61.0793 55.0588 61.0793 55.2318ZM65.4275 47.3259C65.0322 47.9929 64.9828 48.1412 65.0322 48.1412C65.1557 48.1412 65.3534 47.7706 65.4028 47.6718C65.5263 47.4247 65.6746 47.1282 65.7981 46.98C65.8969 46.8565 65.9463 46.7329 65.9216 46.7329C65.8969 46.7082 65.9216 46.6588 65.9957 46.6341C66.0699 46.6094 66.144 46.4612 66.144 46.3624C66.1687 46.2388 66.1687 46.1647 66.2181 46.2141C66.2675 46.2635 66.2922 46.2388 66.3169 46.1894C66.3169 46.1647 66.3416 46.0165 66.3663 45.8929C66.391 45.7694 66.391 45.6953 66.391 45.6953C66.3663 45.72 66.2675 45.8435 66.0946 46.1647C65.971 46.3871 65.6746 46.9306 65.4275 47.3259ZM53.0251 52.3165C52.8522 52.5635 52.7287 52.9094 52.8028 53.0082C52.8275 53.0576 52.8522 53.0576 52.8769 53.0576C52.9263 53.0824 52.951 52.9835 52.9263 52.86C52.9016 52.7612 52.9757 52.6129 53.0499 52.5388C53.0993 52.4894 53.1734 52.3659 53.1734 52.3165C53.1734 52.2424 53.2475 52.0941 53.3463 51.9953C53.4451 51.8718 53.4946 51.7729 53.4946 51.7482C53.4946 51.6 53.5193 51.5506 53.5687 51.5506C53.5687 51.5506 53.5934 51.5753 53.6181 51.5753C53.6922 51.6 53.7416 51.5753 53.7169 51.4271C53.6922 51.3282 53.7663 51.2047 53.8404 51.1306C53.9887 51.0071 54.1369 50.6612 54.0134 50.6612C53.964 50.6365 53.7663 50.9824 53.5687 51.3776C53.3463 51.7976 53.0993 52.2176 53.0251 52.3165ZM66.4404 51.2541C65.7487 51.3776 65.5016 51.4271 65.6993 51.4271C65.7981 51.4518 66.0204 51.4271 66.3663 51.3776C67.0828 51.2788 67.3051 51.2294 67.9969 51.0318C68.3428 50.9329 68.4416 50.8588 68.3428 50.8588C68.2934 50.8588 68.1451 50.8835 67.8981 50.9576C67.6263 51.0318 66.984 51.1553 66.4404 51.2541ZM64.6616 47.5976C64.4887 47.8694 64.3404 48.1412 64.3404 48.1659C64.3404 48.3388 64.7851 47.6471 65.2299 46.8318C65.5757 46.1894 65.7487 45.8435 65.724 45.8435C65.6993 45.8435 65.6004 46.0165 65.3781 46.3871C65.1804 46.7329 65.0075 47.0294 65.0075 47.0294C65.0075 47.0541 64.8593 47.3012 64.6616 47.5976ZM59.4981 59.2094C59.3251 59.8024 59.3004 60.3953 59.3746 60.4694C59.3993 60.4941 59.3993 60.5188 59.424 60.5188C59.4487 60.4941 59.4734 60.3212 59.5475 59.58L59.6463 58.6906L59.4981 59.2094ZM62.9322 48.1165C62.9322 48.1412 62.9569 48.1659 63.0063 48.1412C63.0557 48.1165 63.2781 47.7706 63.5004 47.3753C63.7228 46.98 63.9204 46.6341 63.8957 46.6094C63.871 46.5847 63.031 47.8941 62.9322 48.1165ZM65.971 50.2659C65.9463 50.2906 65.971 50.3153 66.0451 50.3153C66.2922 50.2906 67.5769 50.0435 67.7251 49.9447C67.7993 49.8953 67.824 49.8706 67.7993 49.8706C67.7993 49.8706 67.7746 49.8706 67.7251 49.8953C67.404 49.9694 66.2181 50.2659 65.971 50.2659ZM48.2322 50.2906C48.1581 50.34 48.1581 50.3647 48.2075 50.3647C48.2075 50.3647 48.2569 50.3647 48.3063 50.34L49.0475 50.1424C49.344 50.0682 49.5416 49.9694 49.4675 49.9694C49.4428 49.9694 49.4181 49.9694 49.3934 49.9694C49.0969 49.9694 48.3557 50.1918 48.2322 50.2906ZM58.8557 59.7282C58.831 59.9506 58.8557 60.2224 58.9299 60.2224C58.9299 60.2224 58.9546 60.2224 58.9546 60.1976C58.9546 60.1482 58.9546 59.9753 58.9299 59.7776C58.9051 59.6047 58.8804 59.5306 58.8804 59.5306C58.8804 59.5306 58.8557 59.6047 58.8557 59.7282ZM53.3463 50.7106C53.1981 50.9082 53.0746 51.1553 53.124 51.1553C53.1487 51.1553 53.2475 51.0318 53.3216 50.8835C53.4204 50.6859 53.4946 50.5624 53.4699 50.5624C53.4699 50.5624 53.4204 50.6118 53.3463 50.7106ZM64.3899 49.1047C64.2416 49.2035 64.2169 49.3765 64.3404 49.3271C64.3899 49.3024 64.4393 49.2282 64.464 49.1541C64.4887 49.08 64.4887 49.0306 64.4887 49.0306C64.464 49.0306 64.4393 49.0553 64.3899 49.1047ZM66.6628 45.1024C66.6134 45.2012 66.6134 45.2753 66.6381 45.2753L66.7616 45.1518C66.811 45.0529 66.811 44.9788 66.7863 44.9788C66.7616 44.9788 66.7122 45.0282 66.6628 45.1024ZM48.5534 49.8459C48.4793 49.8953 48.504 49.8953 48.6275 49.8706C48.7263 49.8459 48.8499 49.7965 48.924 49.7471C48.9981 49.6976 48.9734 49.6976 48.8499 49.7224C48.751 49.7471 48.6028 49.7965 48.5534 49.8459ZM60.6346 56.0965C60.6346 56.1459 60.684 56.0965 60.7581 55.9729C60.8322 55.8741 60.8816 55.7506 60.8816 55.7012C60.8816 55.6518 60.8569 55.7259 60.7828 55.8247C60.7087 55.9235 60.6593 56.0471 60.6346 56.0965ZM52.8275 51.6494C52.8028 51.7235 52.8028 51.7976 52.8522 51.7729C52.8769 51.7482 52.9016 51.6494 52.951 51.5753C53.0004 51.4765 52.9757 51.4271 52.9263 51.4518C52.9016 51.4518 52.8522 51.5506 52.8275 51.6494ZM63.6487 49.2035C63.624 49.2529 63.6487 49.3024 63.6981 49.3024C63.7475 49.3024 63.8216 49.2776 63.8216 49.2282C63.8216 49.1788 63.7969 49.1294 63.7475 49.1294C63.7228 49.1294 63.6734 49.1788 63.6487 49.2035ZM57.3981 42.9776C57.3981 43.0518 57.4228 43.0765 57.4475 43.0518C57.4969 43.0271 57.5463 42.9776 57.5463 42.9282C57.5463 42.8788 57.5216 42.8541 57.4722 42.8541C57.4475 42.8541 57.3981 42.9035 57.3981 42.9776ZM61.8451 46.9059C61.7957 47.0047 61.771 47.0788 61.7957 47.0788C61.8204 47.0788 61.8699 47.0047 61.9193 46.9306C61.9687 46.8318 61.9934 46.7576 61.9687 46.7576C61.944 46.7576 61.8946 46.8318 61.8451 46.9059ZM48.2569 60.8153C48.2322 60.84 48.1828 60.9141 48.1828 60.9388C48.1828 60.9882 48.2075 61.0129 48.2569 60.9882C48.3063 60.9635 48.331 60.9141 48.331 60.8647C48.331 60.8153 48.3063 60.7906 48.2569 60.8153ZM62.1663 46.3624C62.1169 46.4365 62.0922 46.5106 62.1169 46.5106C62.1416 46.5106 62.191 46.4612 62.2404 46.3624C62.2899 46.2635 62.3146 46.2141 62.2899 46.1894C62.2651 46.1894 62.2157 46.2635 62.1663 46.3624ZM47.8122 50.4882C47.6887 50.5376 47.664 50.5871 47.7628 50.5871C47.7875 50.5871 47.8616 50.5624 47.8863 50.5129C47.911 50.4882 47.8863 50.4635 47.8122 50.4882ZM52.0122 53.1565C52.0122 53.2059 52.0122 53.2306 52.0369 53.2306C52.0369 53.2306 52.0863 53.2059 52.111 53.1318C52.1357 53.0576 52.1357 53.0082 52.0863 53.0329C52.0369 53.0576 52.0122 53.1318 52.0122 53.1565ZM48.504 60.2224C48.4793 60.2224 48.4546 60.2471 48.4793 60.2965C48.504 60.3459 48.5534 60.3953 48.5534 60.3953C48.5781 60.3953 48.5781 60.3459 48.5781 60.2965C48.6028 60.2718 48.5534 60.2224 48.504 60.2224ZM49.1463 49.6482C49.0969 49.6729 49.0969 49.6976 49.1957 49.6976C49.2451 49.6976 49.2946 49.6976 49.2946 49.6729C49.2451 49.6235 49.1957 49.6235 49.1463 49.6482ZM49.4428 49.5741C49.3687 49.5988 49.3934 49.6482 49.4922 49.6482C49.5663 49.6482 49.591 49.6235 49.591 49.5988C49.5663 49.5741 49.4922 49.5741 49.4428 49.5741ZM57.8675 59.6294C57.8428 59.8518 57.8428 59.9506 57.8675 59.8518L57.8922 59.4565L57.8675 59.6294ZM59.671 58.5176L59.7204 58.6165V58.4682L59.671 58.5176ZM67.9969 41.7671L68.0216 41.8659L68.0463 41.7176L67.9969 41.7671Z" fill="white"/>
</svg>
