<svg width="1767" height="690" viewBox="0 0 1767 690" fill="none" xmlns="http://www.w3.org/2000/svg">
<rect width="1767" height="690" rx="23.7285" fill="#F5F5F5"/>
<rect x="54" y="163" width="226.503" height="405.893" fill="#D9D9D9"/>
<rect x="54" y="163" width="226.503" height="405.893" fill="#D9D9D9"/>
<rect x="77.2543" y="402.188" width="179.994" height="35.9384" fill="#C4C4C4"/>
<rect x="79.3683" y="451.413" width="130.164" height="25.6703" fill="#C4C4C4"/>
<rect x="79.3683" y="490.674" width="79.729" height="7.85209" fill="#C4C4C4"/>
<rect x="77.2543" y="304.64" width="179.994" height="83.957" fill="#C4C4C4"/>
<rect x="77.2543" y="254.81" width="179.994" height="133.788" fill="#C4C4C4"/>
<rect x="61.5502" y="172.362" width="35.9384" height="35.9384" fill="#C4C4C4"/>
<rect x="1485.5" y="163" width="226.503" height="405.893" fill="#D9D9D9"/>
<rect x="1485.5" y="163" width="226.503" height="405.893" fill="#D9D9D9"/>
<rect x="1507.24" y="343.598" width="179.994" height="34.4284" fill="#C4C4C4"/>
<rect x="1507.24" y="391.315" width="179.994" height="34.4284" fill="#C4C4C4"/>
<rect x="1507.24" y="439.334" width="179.994" height="34.4284" fill="#C4C4C4"/>
<rect x="1507.24" y="487.352" width="179.994" height="34.4284" fill="#C4C4C4"/>
<rect x="1508.75" y="195.919" width="179.994" height="55.8707" fill="#C4C4C4"/>
<rect x="1508.75" y="259.943" width="86.977" height="70.0648" fill="#C4C4C4"/>
<rect x="1601.77" y="259.943" width="86.977" height="70.0648" fill="#C4C4C4"/>
<rect x="1485.5" y="540.807" width="226.503" height="28.0863" fill="#C4C4C4"/>
<rect x="292.583" y="163" width="226.503" height="405.893" fill="#D9D9D9"/>
<rect x="292.583" y="163" width="226.503" height="405.893" fill="#D9D9D9"/>
<rect x="340.601" y="428.461" width="130.164" height="25.6703" fill="#C4C4C4"/>
<rect x="307.683" y="529.633" width="40.7705" height="17.2142" fill="#C4C4C4"/>
<rect x="368.688" y="323.364" width="73.9909" height="66.7428" fill="#C4C4C4"/>
<rect x="315.837" y="254.81" width="179.994" height="30.2004" fill="#C4C4C4"/>
<rect x="300.133" y="172.362" width="35.9384" height="35.9384" fill="#C4C4C4"/>
<rect x="531.166" y="163" width="226.503" height="405.893" fill="#D9D9D9"/>
<rect x="531.166" y="163" width="226.503" height="405.893" fill="#D9D9D9"/>
<rect x="546.266" y="529.633" width="40.7705" height="17.2142" fill="#C4C4C4"/>
<rect x="700.288" y="529.633" width="40.7705" height="17.2142" fill="#C4C4C4"/>
<rect x="554.42" y="254.81" width="179.994" height="30.2004" fill="#C4C4C4"/>
<rect x="538.716" y="172.362" width="35.9384" height="35.9384" fill="#C4C4C4"/>
<rect x="556.836" y="318.532" width="177.578" height="40.7705" fill="#C4C4C4"/>
<rect x="556.836" y="369.872" width="177.578" height="40.7705" fill="#C4C4C4"/>
<rect x="556.836" y="421.213" width="177.578" height="40.7705" fill="#C4C4C4"/>
<rect x="579.184" y="472.554" width="130.164" height="25.6703" fill="#C4C4C4"/>
<rect x="769.749" y="163" width="226.503" height="405.893" fill="#D9D9D9"/>
<rect x="769.749" y="163" width="226.503" height="405.893" fill="#D9D9D9"/>
<rect x="784.849" y="529.633" width="40.7705" height="17.2142" fill="#C4C4C4"/>
<rect x="938.871" y="529.633" width="40.7705" height="17.2142" fill="#C4C4C4"/>
<rect x="795.419" y="318.532" width="177.578" height="40.7705" fill="#C4C4C4"/>
<rect x="795.419" y="369.872" width="177.578" height="40.7705" fill="#C4C4C4"/>
<rect x="795.419" y="421.213" width="177.578" height="40.7705" fill="#C4C4C4"/>
<rect x="793.003" y="254.81" width="179.994" height="30.2004" fill="#C4C4C4"/>
<rect x="777.299" y="172.362" width="35.9384" height="35.9384" fill="#C4C4C4"/>
<rect x="817.767" y="472.554" width="130.164" height="25.6703" fill="#C4C4C4"/>
<rect x="1008.33" y="163" width="226.503" height="405.893" fill="#D9D9D9"/>
<rect x="1008.33" y="163" width="226.503" height="405.893" fill="#D9D9D9"/>
<rect x="1023.43" y="529.633" width="40.7705" height="17.2142" fill="#C4C4C4"/>
<rect x="1177.45" y="529.633" width="40.7705" height="17.2142" fill="#C4C4C4"/>
<rect x="1034" y="318.532" width="177.578" height="40.7705" fill="#C4C4C4"/>
<rect x="1034" y="369.872" width="177.578" height="40.7705" fill="#C4C4C4"/>
<rect x="1034" y="421.213" width="177.578" height="40.7705" fill="#C4C4C4"/>
<rect x="1031.59" y="254.81" width="179.994" height="30.2004" fill="#C4C4C4"/>
<rect x="1015.88" y="172.362" width="35.9384" height="35.9384" fill="#C4C4C4"/>
<rect x="1056.35" y="472.554" width="130.164" height="25.6703" fill="#C4C4C4"/>
<rect x="1246.91" y="163" width="226.503" height="405.893" fill="#D9D9D9"/>
<rect x="1246.91" y="163" width="226.503" height="405.893" fill="#D9D9D9"/>
<rect x="1262.01" y="529.633" width="40.7705" height="17.2142" fill="#C4C4C4"/>
<rect x="1416.04" y="529.633" width="40.7705" height="17.2142" fill="#C4C4C4"/>
<rect x="1270.17" y="322.761" width="177.578" height="40.7705" fill="#C4C4C4"/>
<rect x="1270.17" y="374.101" width="177.578" height="40.7705" fill="#C4C4C4"/>
<rect x="1270.17" y="254.81" width="179.994" height="30.2004" fill="#C4C4C4"/>
<rect x="1254.46" y="172.362" width="35.9384" height="35.9384" fill="#C4C4C4"/>
<rect x="1298.86" y="429.368" width="150.7" height="12.9862" fill="#C4C4C4"/>
<rect x="1270.77" y="429.368" width="12.9862" height="12.9862" fill="#C4C4C4"/>
<rect x="1294.93" y="473.158" width="130.164" height="25.6703" fill="#C4C4C4"/>
</svg>
