<svg width="716" height="388" viewBox="0 0 716 388" fill="none" xmlns="http://www.w3.org/2000/svg">
<rect width="715.748" height="387.807" transform="translate(0 0.193359)" fill="#E1E1E1"/>
<rect width="715.748" height="387.807" transform="translate(0 0.193359)" fill="#E1E1E1"/>
<rect y="0.193359" width="715.748" height="387.807" fill="white"/>
<rect y="0.193359" width="715.748" height="44.8048" fill="#D9D9D9"/>
<rect y="44.998" width="159.641" height="343.002" fill="#F0F0F0"/>
<rect y="44.998" width="159.641" height="343.002" fill="#F0F0F0"/>
<rect x="150.228" y="44.998" width="9.41278" height="343.002" fill="#F0F0F0"/>
<rect x="150.228" y="44.998" width="9.41278" height="343.002" fill="#E1E1E1"/>
<rect x="150.228" y="44.998" width="9.41278" height="343.002" fill="#E1E1E1"/>
<rect x="150.228" y="44.998" width="9.41278" height="343.002" fill="#E1E1E1"/>
<rect x="150.228" y="44.998" width="9.41278" height="112.577" fill="#F0F0F0"/>
<rect x="150.228" y="44.998" width="9.41278" height="112.577" fill="#E1E1E1"/>
<rect x="150.228" y="44.998" width="9.41278" height="112.577" fill="#E1E1E1"/>
<rect x="150.228" y="44.998" width="9.41278" height="112.577" fill="#CDCDCD"/>
<rect x="545.188" y="8.36426" width="150.981" height="28.4636" fill="#F0F0F0"/>
<rect x="545.188" y="8.36426" width="150.981" height="28.4636" fill="#E1E1E1"/>
<rect x="545.188" y="8.36426" width="150.981" height="28.4636" fill="#E1E1E1"/>
<rect x="545.188" y="8.36426" width="150.981" height="28.4636" fill="#CDCDCD"/>
<rect x="671.696" y="8.47656" width="24.4732" height="28.2383" fill="#F0F0F0"/>
<rect x="671.696" y="8.47656" width="24.4732" height="28.2383" fill="#E1E1E1"/>
<rect x="671.696" y="8.47656" width="24.4732" height="28.2383" fill="#E1E1E1"/>
<rect x="671.696" y="8.47656" width="24.4732" height="28.2383" fill="#B7B7B7"/>
<rect x="647.223" y="8.47656" width="24.4732" height="28.2383" fill="#F0F0F0"/>
<rect x="647.223" y="8.47656" width="24.4732" height="28.2383" fill="#E1E1E1"/>
<rect x="647.223" y="8.47656" width="24.4732" height="28.2383" fill="#E1E1E1"/>
<rect x="647.223" y="8.47656" width="24.4732" height="28.2383" fill="#C0C0C0"/>
<rect x="470.262" y="9.60645" width="65.1364" height="25.9793" fill="#F0F0F0"/>
<rect x="470.262" y="9.60645" width="65.1364" height="25.9793" fill="#E1E1E1"/>
<rect x="470.262" y="9.60645" width="65.1364" height="25.9793" fill="#E1E1E1"/>
<rect x="470.262" y="9.60645" width="65.1364" height="25.9793" fill="#CDCDCD"/>
<rect x="392.701" y="9.60645" width="65.1364" height="25.9793" fill="#F0F0F0"/>
<rect x="392.701" y="9.60645" width="65.1364" height="25.9793" fill="#E1E1E1"/>
<rect x="392.701" y="9.60645" width="65.1364" height="25.9793" fill="#E1E1E1"/>
<rect x="392.701" y="9.60645" width="65.1364" height="25.9793" fill="#CDCDCD"/>
<rect x="184.114" y="180.542" width="195.409" height="124.625" fill="#F0F0F0"/>
<rect x="184.114" y="180.542" width="195.409" height="124.625" fill="#E1E1E1"/>
<rect x="184.114" y="180.542" width="195.409" height="124.625" fill="#E1E1E1"/>
<rect x="184.114" y="180.542" width="195.409" height="124.625" fill="#CDCDCD"/>
<rect x="184.114" y="135.737" width="312.128" height="31.6269" fill="#F0F0F0"/>
<rect x="184.114" y="135.737" width="312.128" height="31.6269" fill="#E1E1E1"/>
<rect x="184.114" y="135.737" width="312.128" height="31.6269" fill="#E1E1E1"/>
<rect x="184.114" y="135.737" width="312.128" height="31.6269" fill="#CDCDCD"/>
<rect x="184.114" y="57.7998" width="181.478" height="11.6718" fill="#F0F0F0"/>
<rect x="184.114" y="57.7998" width="181.478" height="11.6718" fill="#E1E1E1"/>
<rect x="184.114" y="57.7998" width="181.478" height="11.6718" fill="#E1E1E1"/>
<rect x="184.114" y="57.7998" width="181.478" height="11.6718" fill="#CDCDCD"/>
<rect x="184.114" y="82.6494" width="236.073" height="41.7927" fill="#F0F0F0"/>
<rect x="184.114" y="82.6494" width="236.073" height="41.7927" fill="#E1E1E1"/>
<rect x="184.114" y="82.6494" width="236.073" height="41.7927" fill="#E1E1E1"/>
<rect x="184.114" y="82.6494" width="236.073" height="41.7927" fill="#CDCDCD"/>
<rect x="184.114" y="361.268" width="236.073" height="26.7323" fill="#F0F0F0"/>
<rect x="184.114" y="361.268" width="236.073" height="26.7323" fill="#E1E1E1"/>
<rect x="184.114" y="361.268" width="236.073" height="26.7323" fill="#E1E1E1"/>
<rect x="184.114" y="361.268" width="236.073" height="26.7323" fill="#CDCDCD"/>
<circle cx="594.888" cy="57.8" r="9.78929" fill="#D9D9D9"/>
<circle cx="620.49" cy="57.8" r="9.78929" fill="#D9D9D9"/>
<circle cx="704.453" cy="22.7843" r="4.89465" fill="#C6C6C6"/>
<circle cx="525.61" cy="57.8" r="9.78929" fill="#D9D9D9"/>
<rect x="702.947" y="156.822" width="12.8014" height="86.2211" fill="#B6B6B6"/>
<path d="M711.794 191.461L706.711 200.497L711.794 208.969" stroke="#919191" stroke-width="2.25907"/>
</svg>
