<svg width="716" height="388" viewBox="0 0 716 388" fill="none" xmlns="http://www.w3.org/2000/svg">
<rect width="715.748" height="387.807" fill="#E1E1E1"/>
<rect width="715.748" height="387.807" fill="#E1E1E1"/>
<rect width="715.748" height="387.807" fill="white"/>
<rect width="715.748" height="44.8048" fill="#D9D9D9"/>
<rect y="44.8047" width="159.641" height="343.002" fill="#F0F0F0"/>
<rect y="44.8047" width="159.641" height="343.002" fill="#F0F0F0"/>
<rect x="150.228" y="44.8047" width="9.41278" height="343.002" fill="#F0F0F0"/>
<rect x="150.228" y="44.8047" width="9.41278" height="343.002" fill="#E1E1E1"/>
<rect x="150.228" y="44.8047" width="9.41278" height="343.002" fill="#E1E1E1"/>
<rect x="150.228" y="44.8047" width="9.41278" height="343.002" fill="#E1E1E1"/>
<rect x="150.228" y="44.8047" width="9.41278" height="112.577" fill="#F0F0F0"/>
<rect x="150.228" y="44.8047" width="9.41278" height="112.577" fill="#E1E1E1"/>
<rect x="150.228" y="44.8047" width="9.41278" height="112.577" fill="#E1E1E1"/>
<rect x="150.228" y="44.8047" width="9.41278" height="112.577" fill="#CDCDCD"/>
<rect x="545.188" y="8.1709" width="150.981" height="28.4636" fill="#F0F0F0"/>
<rect x="545.188" y="8.1709" width="150.981" height="28.4636" fill="#E1E1E1"/>
<rect x="545.188" y="8.1709" width="150.981" height="28.4636" fill="#E1E1E1"/>
<rect x="545.188" y="8.1709" width="150.981" height="28.4636" fill="#CDCDCD"/>
<rect x="671.696" y="8.2832" width="24.4732" height="28.2383" fill="#F0F0F0"/>
<rect x="671.696" y="8.2832" width="24.4732" height="28.2383" fill="#E1E1E1"/>
<rect x="671.696" y="8.2832" width="24.4732" height="28.2383" fill="#E1E1E1"/>
<rect x="671.696" y="8.2832" width="24.4732" height="28.2383" fill="#B7B7B7"/>
<rect x="647.223" y="8.2832" width="24.4732" height="28.2383" fill="#F0F0F0"/>
<rect x="647.223" y="8.2832" width="24.4732" height="28.2383" fill="#E1E1E1"/>
<rect x="647.223" y="8.2832" width="24.4732" height="28.2383" fill="#E1E1E1"/>
<rect x="647.223" y="8.2832" width="24.4732" height="28.2383" fill="#C0C0C0"/>
<rect x="470.262" y="9.41309" width="65.1364" height="25.9793" fill="#F0F0F0"/>
<rect x="470.262" y="9.41309" width="65.1364" height="25.9793" fill="#E1E1E1"/>
<rect x="470.262" y="9.41309" width="65.1364" height="25.9793" fill="#E1E1E1"/>
<rect x="470.262" y="9.41309" width="65.1364" height="25.9793" fill="#CDCDCD"/>
<rect x="392.701" y="9.41309" width="65.1364" height="25.9793" fill="#F0F0F0"/>
<rect x="392.701" y="9.41309" width="65.1364" height="25.9793" fill="#E1E1E1"/>
<rect x="392.701" y="9.41309" width="65.1364" height="25.9793" fill="#E1E1E1"/>
<rect x="392.701" y="9.41309" width="65.1364" height="25.9793" fill="#CDCDCD"/>
<rect x="184.114" y="180.349" width="195.409" height="124.625" fill="#F0F0F0"/>
<rect x="184.114" y="180.349" width="195.409" height="124.625" fill="#E1E1E1"/>
<rect x="184.114" y="180.349" width="195.409" height="124.625" fill="#E1E1E1"/>
<rect x="184.114" y="180.349" width="195.409" height="124.625" fill="#CDCDCD"/>
<rect x="184.114" y="135.544" width="312.128" height="31.6269" fill="#F0F0F0"/>
<rect x="184.114" y="135.544" width="312.128" height="31.6269" fill="#E1E1E1"/>
<rect x="184.114" y="135.544" width="312.128" height="31.6269" fill="#E1E1E1"/>
<rect x="184.114" y="135.544" width="312.128" height="31.6269" fill="#CDCDCD"/>
<rect x="184.114" y="57.6064" width="181.478" height="11.6718" fill="#F0F0F0"/>
<rect x="184.114" y="57.6064" width="181.478" height="11.6718" fill="#E1E1E1"/>
<rect x="184.114" y="57.6064" width="181.478" height="11.6718" fill="#E1E1E1"/>
<rect x="184.114" y="57.6064" width="181.478" height="11.6718" fill="#CDCDCD"/>
<rect x="184.114" y="82.4561" width="236.073" height="41.7927" fill="#F0F0F0"/>
<rect x="184.114" y="82.4561" width="236.073" height="41.7927" fill="#E1E1E1"/>
<rect x="184.114" y="82.4561" width="236.073" height="41.7927" fill="#E1E1E1"/>
<rect x="184.114" y="82.4561" width="236.073" height="41.7927" fill="#CDCDCD"/>
<rect x="184.114" y="361.074" width="236.073" height="26.7323" fill="#F0F0F0"/>
<rect x="184.114" y="361.074" width="236.073" height="26.7323" fill="#E1E1E1"/>
<rect x="184.114" y="361.074" width="236.073" height="26.7323" fill="#E1E1E1"/>
<rect x="184.114" y="361.074" width="236.073" height="26.7323" fill="#CDCDCD"/>
<circle cx="594.888" cy="57.6067" r="9.78929" fill="#D9D9D9"/>
<circle cx="620.49" cy="57.6067" r="9.78929" fill="#D9D9D9"/>
<circle cx="704.453" cy="22.5909" r="4.89465" fill="#C6C6C6"/>
<circle cx="525.61" cy="57.6067" r="9.78929" fill="#D9D9D9"/>
<ellipse cx="659.202" cy="338.672" rx="35.3232" ry="35.9568" fill="#C4C4C4"/>
<path d="M647.179 333.043H668.108M647.179 338H668.108M643.458 325.683V345.811H668.108L675.085 354.674V325.683H643.458Z" stroke="#ABABAB" stroke-width="2.25907"/>
</svg>
